<?xml version="1.0" standalone="no"?>
<!DOCTYPE svg PUBLIC "-//W3C//DTD SVG 20010904//EN"
 "http://www.w3.org/TR/2001/REC-SVG-20010904/DTD/svg10.dtd">
<svg version="1.0" xmlns="http://www.w3.org/2000/svg"
 width="427.000000pt" height="427.000000pt" viewBox="0 0 427.000000 427.000000"
 preserveAspectRatio="xMidYMid meet">
<metadata>
Created by potrace 1.14, written by Peter Selinger 2001-2017
</metadata>
<g transform="translate(0.000000,427.000000) scale(0.100000,-0.100000)"
fill="#000000" stroke="none">
<path d="M1899 4255 c-2 -2 -40 -8 -85 -14 -45 -7 -128 -23 -185 -37 -57 -14
-111 -27 -119 -29 -44 -9 -229 -84 -327 -132 -267 -131 -530 -341 -709 -564
-32 -41 -62 -75 -66 -77 -5 -2 -8 -10 -8 -17 0 -7 -3 -15 -8 -17 -12 -5 -95
-136 -145 -228 -66 -122 -151 -331 -172 -420 -2 -8 -13 -53 -25 -100 -11 -47
-24 -105 -28 -130 -9 -58 -9 -640 0 -700 30 -199 104 -425 205 -625 42 -84
171 -289 217 -344 242 -289 444 -451 751 -601 172 -84 330 -139 490 -171 168
-34 261 -43 440 -43 127 0 291 11 306 19 3 2 26 6 52 9 313 38 750 242 1021
475 146 127 344 356 423 488 107 181 171 318 222 476 35 111 71 255 78 317 3
25 9 63 14 85 9 43 6 503 -4 545 -3 14 -8 43 -12 65 -3 22 -7 47 -10 55 -2 8
-6 26 -9 40 -6 39 -33 138 -60 220 -119 372 -365 731 -671 979 -80 64 -142
111 -167 126 -9 6 -63 37 -120 71 -215 127 -448 213 -683 253 -33 5 -76 13
-95 17 -36 7 -505 16 -511 9z m141 -277 c0 -13 -5 -50 -10 -83 -5 -33 -13 -80
-16 -105 -3 -25 -7 -56 -9 -70 -2 -14 -7 -47 -11 -75 -3 -27 -8 -59 -10 -69
-2 -11 -8 -55 -14 -98 -17 -119 -18 -130 -24 -168 -3 -19 -8 -51 -10 -70 -2
-19 -7 -51 -10 -70 -3 -19 -8 -51 -10 -70 -3 -19 -17 -116 -31 -215 -34 -233
-32 -216 -60 -425 -13 -92 -23 -142 -31 -149 -5 -5 -76 -61 -159 -125 -82 -64
-159 -124 -170 -134 -11 -9 -40 -32 -65 -51 -25 -19 -50 -39 -56 -45 -7 -6
-22 -19 -35 -28 -28 -20 -510 -398 -556 -437 -18 -14 -47 -37 -65 -51 -41 -32
-150 -117 -163 -128 -6 -5 -22 -16 -36 -26 l-26 -17 -28 58 c-65 136 -125 322
-149 463 -3 19 -8 44 -10 55 -20 100 -27 345 -14 470 17 154 52 311 103 455
36 99 124 282 169 349 20 29 36 57 36 61 0 5 3 10 8 12 4 2 18 19 32 40 108
156 321 358 495 470 147 93 390 206 477 222 15 2 32 7 37 10 9 6 123 33 176
41 89 15 136 21 188 23 54 3 57 2 57 -20z m409 -2 c375 -68 720 -246 985 -510
249 -247 402 -510 499 -856 9 -30 19 -71 22 -90 3 -19 8 -48 12 -65 24 -117
33 -336 20 -495 -16 -183 -82 -431 -162 -605 -20 -44 -39 -82 -41 -84 -2 -2
-54 37 -116 86 -62 49 -176 138 -253 198 -77 60 -142 112 -145 115 -3 3 -43
35 -90 70 -47 36 -87 68 -90 71 -3 3 -25 21 -50 40 -25 19 -169 132 -321 251
l-277 217 -8 58 c-4 32 -8 65 -9 73 -1 16 -15 114 -20 140 -3 16 -10 64 -21
140 -4 25 -8 56 -9 70 -1 14 -4 39 -8 55 -3 17 -9 50 -12 75 -3 25 -7 56 -9
70 -2 14 -7 47 -11 73 -4 27 -8 59 -11 70 -2 12 -6 46 -10 75 -3 29 -7 61 -9
70 -2 10 -7 45 -11 77 -4 33 -8 62 -9 65 -1 3 -5 30 -9 60 -12 88 -14 101 -26
180 -15 106 -20 140 -25 185 -3 22 -9 64 -14 94 l-8 54 81 -6 c44 -4 119 -13
165 -21z m-273 -2231 c22 -9 48 -20 59 -25 18 -8 163 -67 625 -252 127 -51
201 -81 255 -104 17 -7 152 -61 300 -120 149 -59 274 -110 278 -114 15 -13
-119 -186 -238 -306 -167 -169 -322 -280 -520 -374 -92 -43 -103 -48 -166 -73
-42 -17 -213 -67 -249 -73 -14 -3 -47 -9 -75 -14 -162 -31 -427 -33 -615 -4
-104 15 -255 55 -349 90 -361 138 -637 347 -873 663 -32 42 -56 80 -55 86 2 5
28 19 58 31 131 52 1336 536 1354 544 55 25 142 58 156 59 9 1 34 -6 55 -14z"/>
</g>
</svg>
